<svg width="9" height="8" viewBox="0 0 9 8" fill="none" xmlns="http://www.w3.org/2000/svg">
<path d="M7.59952 5.33297C7.57358 5.30172 7.54812 5.27047 7.52312 5.24031C7.17937 4.82453 6.9714 4.57359 6.9714 3.39656C6.9714 2.78719 6.82562 2.28719 6.53827 1.91219C6.3264 1.63516 6.03999 1.425 5.66249 1.26969C5.65763 1.26699 5.65329 1.26344 5.64968 1.25922C5.5139 0.804531 5.14233 0.5 4.72327 0.5C4.30421 0.5 3.9328 0.804531 3.79702 1.25875C3.7934 1.26282 3.78912 1.26625 3.78437 1.26891C2.90343 1.63156 2.4753 2.32734 2.4753 3.39609C2.4753 4.57359 2.26765 4.82453 1.92358 5.23984C1.89858 5.27 1.87312 5.30062 1.84718 5.3325C1.78018 5.4133 1.73773 5.5116 1.72485 5.61578C1.71198 5.71995 1.72921 5.82563 1.77452 5.92031C1.87093 6.12344 2.0764 6.24953 2.31093 6.24953H7.13733C7.37077 6.24953 7.57483 6.12359 7.67155 5.92141C7.71706 5.8267 7.73446 5.72093 7.72169 5.61664C7.70892 5.51235 7.66653 5.4139 7.59952 5.33297Z" fill="black"/>
<path d="M4.72393 7.5C4.94972 7.49982 5.17125 7.43853 5.36502 7.32263C5.55879 7.20674 5.71759 7.04056 5.82456 6.84172C5.8296 6.83219 5.83208 6.82152 5.83178 6.81074C5.83148 6.79997 5.82839 6.78945 5.82283 6.78022C5.81726 6.77099 5.8094 6.76336 5.80001 6.75806C5.79062 6.75277 5.78002 6.74999 5.76924 6.75H3.67893C3.66814 6.74996 3.65752 6.75272 3.64811 6.75801C3.6387 6.76329 3.63082 6.77092 3.62523 6.78016C3.61965 6.78939 3.61655 6.79992 3.61624 6.81071C3.61593 6.82149 3.61842 6.83218 3.62346 6.84172C3.73042 7.04053 3.88919 7.2067 4.08293 7.32259C4.27667 7.43849 4.49817 7.49979 4.72393 7.5Z" fill="black"/>
</svg>
