<svg width="9" height="8" viewBox="0 0 9 8" fill="none" xmlns="http://www.w3.org/2000/svg">
<path d="M1.06174 4.60432L1.58604 4.60759C1.66443 5.01102 1.8196 5.40301 2.0548 5.75908L1.6824 6.1282C1.54847 6.2605 1.54847 6.47447 1.67913 6.6084L2.08093 7.01509C2.21323 7.14902 2.42719 7.14902 2.56112 7.01836L2.93352 6.64923C3.28631 6.88769 3.67668 7.04939 4.0801 7.13106L4.07684 7.65535C4.0752 7.84318 4.2271 7.99508 4.41493 7.99671L4.98659 7.99998C5.17442 8.00161 5.32632 7.84972 5.32796 7.66188L5.33122 7.13759C5.73465 7.05919 6.12665 6.90403 6.48271 6.66883L6.85184 7.04123C6.98413 7.17516 7.1981 7.17516 7.33203 7.04449L7.73873 6.6427C7.87266 6.5104 7.87266 6.29643 7.74199 6.1625L7.37286 5.79011C7.61133 5.43731 7.77303 5.04695 7.85469 4.64352L8.37898 4.64679C8.56681 4.64842 8.71871 4.49652 8.72035 4.30869L8.72361 3.73703C8.72525 3.5492 8.57335 3.3973 8.38552 3.39567L7.86122 3.3924C7.78282 2.98898 7.62766 2.59698 7.39246 2.24092L7.76486 1.87179C7.89879 1.73949 7.89879 1.52553 7.76813 1.3916L7.36633 0.984901C7.23403 0.850969 7.02007 0.850969 6.88614 0.981634L6.51374 1.35076C6.16094 1.1123 5.77058 0.950601 5.36715 0.868936L5.37042 0.344642C5.37206 0.156811 5.22016 0.00491299 5.03233 0.00327968L4.46067 1.30495e-05C4.27284 -0.00162026 4.12094 0.150278 4.1193 0.338109L4.1144 0.862402C3.70934 0.940801 3.31735 1.09597 2.96292 1.33116L2.59379 0.958768C2.46149 0.824836 2.24753 0.824836 2.1136 0.955501L1.70853 1.3573C1.5746 1.48959 1.5746 1.70356 1.70527 1.83749L2.0744 2.20989C1.83593 2.56268 1.67423 2.95304 1.59257 3.35647L1.06827 3.3532C0.880444 3.35157 0.728546 3.50347 0.726912 3.6913L0.723646 4.26296C0.722013 4.44916 0.873911 4.60269 1.06174 4.60432ZM3.65218 2.91711C4.24997 2.32585 5.21199 2.33075 5.80325 2.92854C6.39451 3.52634 6.38961 4.48836 5.79182 5.07962C5.19402 5.67088 4.232 5.66598 3.64074 5.06818C3.04948 4.47039 3.05438 3.50837 3.65218 2.91711Z" fill="black"/>
</svg>
